# xmcd CD database file
#
# Track frame offsets:
#	150
#	25702
#	31454
#	58650
#	81904
#	98524
#	104276
#	131361
#	157283
#	171166
#	180450
#	190365
#
# Disc length: 2826 seconds
#
# Revision: 0
# Processed by: cddbd v1.5.1PL0 Copyright (c) Steve Scherf et al.
# Submitted via: CDex 1.51
#
DISCID=970b080c
DTITLE=既出技術 - SAITAMARMAID
DYEAR=1900
DGENRE=
TTITLE0=さいたまですょ - ちょりん
TTITLE1=僕のお父さんの１
TTITLE2=e_c (from AA hard edit) - AI_Mac.rar
TTITLE3=saitamabreak - DJ ichigo
TTITLE4=sound of… - 処刑EDライダー
TTITLE5=僕のお父さんの２
TTITLE6=saitamambient - DJ minto
TTITLE7=weekly uh - DJ ichigo and DJ MUNEO
TTITLE8=saitamako - DJ bathrobe
TTITLE9=永久（とわ）に萌えょ (スピードまんまver.) - ちょりん
TTITLE10=僕のお父さんの３
TTITLE11=ボーナストラック
EXTD=
EXTT0=
EXTT1=
EXTT2=
EXTT3=
EXTT4=
EXTT5=
EXTT6=
EXTT7=
EXTT8=
EXTT9=
EXTT10=
EXTT11=
PLAYORDER=
